<?xml version="1.0" encoding="UTF-8" standalone="no"?>
<!-- Created with Inkscape (http://www.inkscape.org/) -->

<svg
   xmlns:dc="http://purl.org/dc/elements/1.1/"
   xmlns:cc="http://creativecommons.org/ns#"
   xmlns:rdf="http://www.w3.org/1999/02/22-rdf-syntax-ns#"
   xmlns:svg="http://www.w3.org/2000/svg"
   xmlns="http://www.w3.org/2000/svg"
   xmlns:sodipodi="http://sodipodi.sourceforge.net/DTD/sodipodi-0.dtd"
   xmlns:inkscape="http://www.inkscape.org/namespaces/inkscape"
   width="139"
   height="225"
   viewBox="0 0 138.99989 225"
   id="svg4211"
   version="1.1"
   inkscape:version="0.91 r13725"
   sodipodi:docname="cacti.svg">
  <defs
     id="defs4213" />
  <sodipodi:namedview
     id="base"
     pagecolor="#ffffff"
     bordercolor="#666666"
     borderopacity="1.0"
     inkscape:pageopacity="0.0"
     inkscape:pageshadow="2"
     inkscape:zoom="1.4"
     inkscape:cx="103.83137"
     inkscape:cy="59.520508"
     inkscape:document-units="px"
     inkscape:current-layer="layer1"
     showgrid="false"
     inkscape:window-width="1440"
     inkscape:window-height="844"
     inkscape:window-x="0"
     inkscape:window-y="27"
     inkscape:window-maximized="1"
     units="px" />
  <metadata
     id="metadata4216">
    <rdf:RDF>
      <cc:Work
         rdf:about="">
        <dc:format>image/svg+xml</dc:format>
        <dc:type
           rdf:resource="http://purl.org/dc/dcmitype/StillImage" />
        <dc:title></dc:title>
      </cc:Work>
    </rdf:RDF>
  </metadata>
  <g
     inkscape:label="Layer 1"
     inkscape:groupmode="layer"
     id="layer1"
     transform="translate(0,-827.3606)">
    <path
       style="fill:#00af64;fill-opacity:1"
       d="m 51.906268,1044.5653 c 0,-3.9875 -0.61151,-7.8616 -1.35892,-8.609 -0.97855,-0.9785 -0.97855,-1.594 0,-2.1987 0.85722,-0.5298 1.35892,-6.415 1.35892,-15.9408 0,-12.9008 -0.31871,-15.3487 -2.1875,-16.8013 -2.08334,-1.61933 -2.08334,-1.78123 0,-3.40063 1.81125,-1.4078 2.1875,-3.7484 2.1875,-13.608 l 0,-11.9078 -5.9375,-0.8702 c -7.99188,-1.1714 -15.80941,-4.7465 -22.68629,-10.3751 -3.13387,-2.5649 -6.21573,-4.495 -6.84858,-4.2889 -0.63285,0.2061 -1.97381,0.059 -2.97992,-0.3273 -1.44455,-0.5543 -1.51445,-1.0813 -0.33234,-2.5056 1.19345,-1.4381 0.74016,-3.3991 -2.23587,-9.6728 -2.0530406,-4.3279 -4.0519006,-8.8533 -4.4419206,-10.0565 -0.39002,-1.2031 -1.57052,-2.1875 -2.62335,-2.1875 -1.05283,0 -1.91423,-0.8437 -1.91423,-1.875 0,-1.0312 0.5625,-1.875 1.25,-1.875 0.73095,0 1.25,-4.2249 1.25,-10.1747 0,-8.2091 -0.42259,-10.5031 -2.1875,-11.875 -1.98712,-1.5445 -2.0056,-1.8434 -0.20178,-3.2628 3.0003,-2.3608 3.94367,-11.8701 1.33339,-13.4407 -1.88989,-1.1371 -1.89627,-1.3804 -0.0737,-2.8084 1.09747,-0.8598 2.95102,-3.4127 4.11899,-5.673 1.16797,-2.2604 4.0669106,-5.0364 6.4420906,-6.16905 2.37518,-1.13264 4.31851,-2.51767 4.31851,-3.07784 0,-1.79291 3.45565,-1.08853 4.20203,0.85652 0.39573,1.03125 1.52264,1.875 2.50425,1.875 0.9816,0 3.51332,1.96875 5.62604,4.37497 2.11271,2.4063 4.70223,4.375 5.75449,4.375 2.54388,0 2.45884,3.6191 -0.10819,4.6042 -1.74947,0.6713 -1.90227,2.2981 -1.13597,12.0938 0.64831,8.2874 1.44063,11.7514 2.95888,12.936 1.92396,1.5012 1.91521,1.7127 -0.12124,2.9331 -1.61346,0.9669 -1.98082,2.2081 -1.38708,4.6866 1.98268,8.2763 9.02161,17.7463 13.19065,17.7463 2.09004,0 2.26614,-1.4952 2.26614,-19.2412 0,-15.9503 -0.3207,-19.3644 -1.875,-19.9608 -1.03125,-0.3957 -1.875,-1.2997 -1.875,-2.0087 0,-0.7091 0.84375,-1.2893 1.875,-1.2893 2.80985,0 2.80985,-45.62376 0,-46.702 -2.68681,-1.03103 -2.3151,-3.29797 0.54076,-3.29797 1.32867,0 2.76183,-1.09036 3.1848,-2.42302 0.96506,-3.04062 8.86792,-10.07698 11.31793,-10.07698 1.00733,0 1.83151,-0.81055 1.83151,-1.80123 0,-3.10448 2.61899,-3.58515 4.545774,-0.83428 1.01529,1.44953 2.80851,2.63551 3.98494,2.63551 1.17642,0 4.20844,1.40625 6.7378,3.125 2.52937,1.71875 5.47245,3.125 6.54017,3.125 1.97019,0 2.72063,3.1237 1.00382,4.1784 -0.51563,0.31677 -0.76179,6.81871 -0.54703,14.44877 0.31101,11.04944 0.75621,13.87283 2.1875,13.87283 2.37813,0 2.3159,3.62935 -0.078,4.54797 -1.58387,0.6078 -1.875,4.7744 -1.875,26.8358 3e-5,25.2829 0.0798,26.1162 2.50003,26.1162 1.375,0 2.5,0.5427 2.5,1.2061 0,0.6633 -1.125,1.8081 -2.5,2.5439 -2.24324,1.2006 -2.5,2.6173 -2.5,13.794 0,13.8436 1.05632,15.2633 6.96225,9.3574 2.24783,-2.2478 2.89317,-3.9172 2.35036,-6.0799 -0.56771,-2.262 -0.16839,-3.133 1.654988,-3.6098 2.94694,-0.7706 4.03241,-5.5781 4.03241,-17.8592 0,-6.9224 -0.44632,-9.2563 -1.875,-9.8045 -2.646895,-1.0157 -2.32718,-2.8882 0.625,-3.6602 1.95182,-0.5104 2.50102,-1.7072 2.50467,-5.4583 0.006,-5.9395 3.90258,-12.6076 7.96344,-13.6268 1.67511,-0.4204 3.3274,-1.8418 3.67175,-3.1585 0.78324,-2.9952 3.39277,-3.1236 4.1982,-0.2067 0.80461,2.914 8.38782,6.4701 10.85401,5.09 2.29774,-1.2859 4.01201,0.9335 2.38653,3.0898 -0.62515,0.8292 -0.89213,6.2174 -0.59329,11.9737 0.46459,8.949 0.88549,10.5554 2.90401,11.0833 2.8478,0.7447 2.99644,1.992 0.48568,4.0757 -1.08348,0.8992 -1.90645,3.7342 -1.94952,6.7156 -0.041,2.8377 -0.54563,7.9719 -1.12146,11.4094 -0.79622,4.7533 -0.62871,6.7226 0.69953,8.2235 2.37158,2.6798 2.19543,3.6515 -0.66192,3.6515 -1.70452,0 -3.32866,2.0102 -5.55736,6.8783 -1.73195,3.7831 -5.95102,9.8411 -9.37572,13.4622 -3.66938,3.8798 -6.13573,7.6005 -6.00515,9.0592 0.14764,1.6493 -0.40413,2.3075 -1.65341,1.9725 -2.76956,-0.7427 -4.75376,-0.4586 -14.056018,2.0129 l -8.43102,2.2399 -0.006,10.93753 c -0.005,8.8918 0.34421,10.9376 1.86851,10.9376 1.03125,0 1.875,0.8614 1.875,1.9142 0,1.0528 -0.84375,2.238 -1.875,2.6337 -1.5271,0.586 -1.875,3.5939 -1.875,16.2108 l -2.2e-4,15.4913 -18.750004,0 -18.75,0 0,-7.25 z"
       id="path4200"
       inkscape:connector-curvature="0" />
  </g>
</svg>
